<svg xmlns="http://www.w3.org/2000/svg" viewBox="0 0 100 105" role="img" aria-label="Explore">
<defs>
<filter id="rocket_grain" x="-20%" y="-20%" width="140%" height="140%">
  <feTurbulence type="fractalNoise" baseFrequency="0.85" numOctaves="2" seed="13" result="n"/>
  <feColorMatrix in="n" type="matrix" values="0 0 0 0 0  0 0 0 0 0  0 0 0 0 0  0 0 0 0.05 0" result="grain"/>
  <feComposite in="grain" in2="SourceGraphic" operator="in" result="grainClipped"/>
  <feMerge>
    <feMergeNode in="SourceGraphic"/>
    <feMergeNode in="grainClipped"/>
  </feMerge>
</filter>
<filter id="rocket_blur1" x="-60%" y="-60%" width="220%" height="220%">
  <feGaussianBlur stdDeviation="2.4"/>
</filter>
<filter id="rocket_blur2" x="-80%" y="-80%" width="260%" height="260%">
  <feGaussianBlur stdDeviation="4.5"/>
</filter>
<radialGradient id="rocket_g" cx="34%" cy="26%" r="85%">
  <stop offset="0%" stop-color="#e4edf0"/>
  <stop offset="55%" stop-color="#8fa3ad"/>
  <stop offset="100%" stop-color="#40525c"/>
</radialGradient><radialGradient id="rocket_gf" cx="34%" cy="26%" r="85%">
  <stop offset="0%" stop-color="#7f939d"/>
  <stop offset="55%" stop-color="#5a6b78"/>
  <stop offset="100%" stop-color="#26333c"/>
</radialGradient></defs>

<ellipse cx="50" cy="97" rx="26" ry="6" fill="#000" opacity="0.32" filter="url(#rocket_blur2)"/>
<path d="M32 60 C22 62 16 72 18 84 C26 80 32 72 36 64 Z" fill="url(#rocket_gf)" stroke="#141c22" stroke-width="3"/>
<path d="M68 60 C78 62 84 72 82 84 C74 80 68 72 64 64 Z" fill="url(#rocket_gf)" stroke="#141c22" stroke-width="3"/>
<path d="M50 14 C62 22 68 36 68 52 C68 66 62 78 50 90 C38 78 32 66 32 52 C32 36 38 22 50 14 Z" fill="url(#rocket_g)" stroke="#141c22" stroke-width="3.4" filter="url(#rocket_grain)"/>
<path d="M50 14 C62 22 68 36 68 52 C68 66 62 78 50 90 C38 78 32 66 32 52 C32 36 38 22 50 14 Z" fill="none" stroke="#ffffff" stroke-opacity="0.5" stroke-width="2" transform="translate(-1,-1.3)"/>
<path d="M50 20 C56 26 60 34 60 44 C60 46 58 47 56 46" fill="none" stroke="#00000066" stroke-width="2.8" stroke-linecap="round" stroke-linejoin="round" transform="translate(0.55,0.8)"/>
<path d="M50 20 C56 26 60 34 60 44 C60 46 58 47 56 46" fill="none" stroke="#ffffff45" stroke-width="1.4" stroke-linecap="round" stroke-linejoin="round" transform="translate(-0.45,-0.6)"/>
<path d="M50 20 C44 26 40 34 40 44 C40 46 42 47 44 46" fill="none" stroke="#00000066" stroke-width="2.8" stroke-linecap="round" stroke-linejoin="round" transform="translate(0.55,0.8)"/>
<path d="M50 20 C44 26 40 34 40 44 C40 46 42 47 44 46" fill="none" stroke="#ffffff45" stroke-width="1.4" stroke-linecap="round" stroke-linejoin="round" transform="translate(-0.45,-0.6)"/>
<circle cx="50" cy="52" r="9" fill="#3a4a54" stroke="#141c22" stroke-opacity="0.6" stroke-width="2.4"/>
<circle cx="47" cy="49" r="3.4" fill="#cfe6ee" opacity="0.7"/>
<path d="M40 68 L60 68" fill="none" stroke="#00000066" stroke-width="2.8" stroke-linecap="round" stroke-linejoin="round" transform="translate(0.55,0.8)"/>
<path d="M40 68 L60 68" fill="none" stroke="#ffffff45" stroke-width="1.4" stroke-linecap="round" stroke-linejoin="round" transform="translate(-0.45,-0.6)"/>
<path d="M42 76 L58 76" fill="none" stroke="#00000066" stroke-width="2.8" stroke-linecap="round" stroke-linejoin="round" transform="translate(0.55,0.8)"/>
<path d="M42 76 L58 76" fill="none" stroke="#ffffff45" stroke-width="1.4" stroke-linecap="round" stroke-linejoin="round" transform="translate(-0.45,-0.6)"/>
<ellipse cx="40" cy="32" rx="10" ry="16" fill="#ffffff" opacity="0.5" filter="url(#rocket_blur1)" transform="rotate(-10 40 32)"/>

</svg>
